# xmcd
#
# Track frame offsets:
#	150
#	12519
#	26320
#	42406
#	55723
#	71943
#	85502
#	104933
#	124725
#	138011
#
# Disc length: 1981 seconds
#
# Revision: 0
# Processed by: cddbd v1.5.2PL0 Copyright (c) Steve Scherf et al.
# Submitted via: EasyCDDAExtractor 10.2.0.1
#
DISCID=8407bb0a
DTITLE=The Standifers - Forgiven
DYEAR=2001
DGENRE=Gospel
TTITLE0=Jesus Will Do All He Says He Will Do
TTITLE1=Jesus Never Said No
TTITLE2=Forgiven
TTITLE3=Step Into The River
TTITLE4=Lord To Used Of Thee
TTITLE5=It's About Time
TTITLE6=Hang On To The Cross
TTITLE7=The Price For Sin
TTITLE8=Build Your House
TTITLE9=Water Walking Christian
EXTD=
EXTT0=
EXTT1=
EXTT2=
EXTT3=
EXTT4=
EXTT5=
EXTT6=
EXTT7=
EXTT8=
EXTT9=
PLAYORDER=
